2.2Hzlow3min_grf.mot
version=1
nRows=12
nColumns 19
inDegrees=yes
endheader
time	1_ground_force_vx	1_ground_force_vy	1_ground_force_vz	1_ground_force_px	1_ground_force_py	1_ground_force_pz	1_ground_torque_x	1_ground_torque_y	1_ground_torque_z	2_ground_force_vx	2_ground_force_vy	2_ground_force_vz	2_ground_force_px	2_ground_force_py	2_ground_force_pz	2_ground_torque_x	2_ground_torque_y	2_ground_torque_z
            1.253500	            7.625634	           72.857909	           -6.493399	           -0.263180	            0.006078	           -0.372873	            0.000537	            0.005133	           -0.000457	           34.592712	          165.806805	           15.640310	           -0.284222	            0.005580	           -0.731909	            0.121397	            0.581870	            0.054887
            1.254000	            8.037173	           76.103557	           -6.663933	           -0.262537	            0.006064	           -0.369577	           -0.010691	           -0.101229	            0.008864	           34.668114	          170.960786	           16.362590	           -0.283896	            0.005585	           -0.732967	            0.126842	            0.625503	            0.059867
            1.254500	            8.678942	           76.283947	           -6.664753	           -0.263596	            0.006079	           -0.373007	           -0.011534	           -0.101374	            0.008857	           34.840433	          175.195208	           16.846903	           -0.283471	            0.005583	           -0.732048	            0.150196	            0.755259	            0.072626
            1.255000	            9.458528	           78.626371	           -6.381503	           -0.264437	            0.006074	           -0.372006	           -0.014825	           -0.123235	            0.010002	           34.915849	          180.349021	           17.616111	           -0.283042	            0.005585	           -0.732302	            0.140082	            0.723559	            0.070676
            1.255500	           10.375481	           80.608685	           -6.191853	           -0.265495	            0.006070	           -0.371110	           -0.013800	           -0.107215	            0.008236	           35.085736	          185.318196	           18.619262	           -0.283512	            0.005586	           -0.732927	            0.133704	            0.706208	            0.070954
            1.256000	           11.337286	           82.412510	           -6.415792	           -0.263578	            0.006075	           -0.372065	           -0.010090	           -0.073346	            0.005710	           34.975089	          190.103021	           19.387235	           -0.283123	            0.005585	           -0.732413	            0.131246	            0.713374	            0.072752
            1.256500	           12.024045	           86.018350	           -6.493751	           -0.263699	            0.006074	           -0.371976	           -0.007688	           -0.055001	            0.004152	           35.800788	          195.075233	           20.202395	           -0.283246	            0.005587	           -0.732944	            0.117864	            0.642229	            0.066511
            1.257000	           12.526835	           87.282470	           -6.994007	           -0.264065	            0.006082	           -0.373703	           -0.003017	           -0.021018	            0.001684	           35.688955	          200.227198	           21.300178	           -0.282531	            0.005588	           -0.732509	            0.122992	            0.690025	            0.073405
            1.257500	           12.708868	           89.627532	           -7.351261	           -0.265648	            0.006082	           -0.373836	            0.003683	            0.025977	           -0.002131	           35.530189	          205.379663	           22.210270	           -0.282774	            0.005586	           -0.732271	            0.129667	            0.749532	            0.081056
            1.258000	           13.762293	           91.791906	           -7.573882	           -0.265413	            0.006081	           -0.373582	            0.004974	            0.033178	           -0.002738	           35.228414	          211.266541	           23.592330	           -0.282393	            0.005591	           -0.733112	            0.135808	            0.814448	            0.090950
            1.258500	           14.494975	           95.577824	           -7.605326	           -0.264635	            0.006082	           -0.373677	           -0.000512	           -0.003375	            0.000269	           34.884386	          215.864706	           24.829027	           -0.282193	            0.005591	           -0.733125	            0.126380	            0.782040	            0.089951
            1.259000	           15.044011	           99.003764	           -7.775429	           -0.264707	            0.006079	           -0.372992	           -0.012270	           -0.080749	            0.006342	           34.721008	          222.305883	           25.837574	           -0.281790	            0.005595	           -0.733745	            0.129064	            0.826348	            0.096043
